<mxfile host="app.diagrams.net" modified="2023-11-02T14:44:35.556Z" agent="Mozilla/5.0 (Windows NT 10.0; Win64; x64) AppleWebKit/537.36 (KHTML, like Gecko) Chrome/118.0.0.0 Safari/537.36" etag="QGYfYT7b2VXCb0WG5RSA" version="22.0.8" type="github">
  <diagram name="Page-1" id="6t-3F0CNHVPQ4i_G_FKc">
    <mxGraphModel dx="1050" dy="617" grid="1" gridSize="10" guides="1" tooltips="1" connect="1" arrows="1" fold="1" page="1" pageScale="1" pageWidth="850" pageHeight="1100" math="0" shadow="0">
      <root>
        <mxCell id="0" />
        <mxCell id="1" parent="0" />
        <mxCell id="CuKBgaDkOzDOhFKSKETM-6" style="edgeStyle=orthogonalEdgeStyle;rounded=0;orthogonalLoop=1;jettySize=auto;html=1;entryX=0;entryY=0.5;entryDx=0;entryDy=0;" edge="1" parent="1" source="CuKBgaDkOzDOhFKSKETM-1" target="CuKBgaDkOzDOhFKSKETM-2">
          <mxGeometry relative="1" as="geometry" />
        </mxCell>
        <mxCell id="CuKBgaDkOzDOhFKSKETM-7" style="edgeStyle=orthogonalEdgeStyle;rounded=0;orthogonalLoop=1;jettySize=auto;html=1;" edge="1" parent="1" source="CuKBgaDkOzDOhFKSKETM-1" target="CuKBgaDkOzDOhFKSKETM-3">
          <mxGeometry relative="1" as="geometry" />
        </mxCell>
        <mxCell id="CuKBgaDkOzDOhFKSKETM-8" style="edgeStyle=orthogonalEdgeStyle;rounded=0;orthogonalLoop=1;jettySize=auto;html=1;entryX=0;entryY=0.5;entryDx=0;entryDy=0;" edge="1" parent="1" source="CuKBgaDkOzDOhFKSKETM-1" target="CuKBgaDkOzDOhFKSKETM-4">
          <mxGeometry relative="1" as="geometry" />
        </mxCell>
        <mxCell id="CuKBgaDkOzDOhFKSKETM-1" value="ansible server" style="whiteSpace=wrap;html=1;aspect=fixed;fillColor=#b0e3e6;strokeColor=#0e8088;" vertex="1" parent="1">
          <mxGeometry x="180" y="200" width="110" height="110" as="geometry" />
        </mxCell>
        <mxCell id="CuKBgaDkOzDOhFKSKETM-2" value="Node 1" style="rounded=1;whiteSpace=wrap;html=1;gradientColor=#7ea6e0;fillColor=#dae8fc;strokeColor=#6c8ebf;" vertex="1" parent="1">
          <mxGeometry x="420" y="170" width="120" height="50" as="geometry" />
        </mxCell>
        <mxCell id="CuKBgaDkOzDOhFKSKETM-9" value="" style="edgeStyle=orthogonalEdgeStyle;rounded=0;orthogonalLoop=1;jettySize=auto;html=1;" edge="1" parent="1" source="CuKBgaDkOzDOhFKSKETM-3" target="CuKBgaDkOzDOhFKSKETM-4">
          <mxGeometry relative="1" as="geometry" />
        </mxCell>
        <mxCell id="CuKBgaDkOzDOhFKSKETM-3" value="node 2" style="rounded=1;whiteSpace=wrap;html=1;fillColor=#dae8fc;gradientColor=#7ea6e0;strokeColor=#6c8ebf;" vertex="1" parent="1">
          <mxGeometry x="420" y="240" width="120" height="50" as="geometry" />
        </mxCell>
        <mxCell id="CuKBgaDkOzDOhFKSKETM-4" value="Node 3" style="rounded=1;whiteSpace=wrap;html=1;fillColor=#dae8fc;gradientColor=#7ea6e0;strokeColor=#6c8ebf;" vertex="1" parent="1">
          <mxGeometry x="420" y="320" width="120" height="50" as="geometry" />
        </mxCell>
      </root>
    </mxGraphModel>
  </diagram>
</mxfile>
